<svg width="107" height="40" viewBox="0 0 107 40" fill="none" xmlns="http://www.w3.org/2000/svg">
<path d="M44.01 16.99C44.5367 16.99 44.9933 17.0633 45.38 17.21C45.7733 17.35 46.0767 17.5533 46.29 17.82C46.5033 18.0867 46.61 18.4 46.61 18.76C46.61 19.1267 46.5 19.4467 46.28 19.72C46.0667 19.9933 45.7733 20.18 45.4 20.28C45.8467 20.3667 46.1967 20.57 46.45 20.89C46.71 21.21 46.84 21.5967 46.84 22.05C46.84 22.4433 46.73 22.79 46.51 23.09C46.29 23.3833 45.9767 23.61 45.57 23.77C45.1633 23.9233 44.6867 24 44.14 24H40.68V16.99H44.01ZM43.91 19.78C44.1633 19.78 44.3633 19.72 44.51 19.6C44.6567 19.4733 44.73 19.3 44.73 19.08C44.73 18.8667 44.6567 18.7033 44.51 18.59C44.3633 18.47 44.1633 18.4133 43.91 18.42H42.51V19.78H43.91ZM43.91 22.58C44.23 22.58 44.4833 22.5133 44.67 22.38C44.8567 22.2467 44.95 22.06 44.95 21.82C44.95 21.6 44.8567 21.4267 44.67 21.3C44.4833 21.1667 44.23 21.1033 43.91 21.11H42.51V22.58H43.91ZM52.9882 24L52.5082 22.76H49.4782L48.9882 24H47.1082L50.1182 16.99H51.9982L54.9382 24H52.9882ZM50.0282 21.36H51.9682L51.0082 18.86L50.0282 21.36ZM60.457 19.37C60.2304 19.0833 59.9604 18.8567 59.647 18.69C59.3337 18.5167 59.0237 18.43 58.717 18.43C58.3637 18.43 58.0404 18.52 57.747 18.7C57.4604 18.8733 57.2337 19.1167 57.067 19.43C56.9004 19.7367 56.817 20.08 56.817 20.46C56.817 20.84 56.9004 21.1867 57.067 21.5C57.2337 21.8067 57.4604 22.05 57.747 22.23C58.0404 22.4033 58.3637 22.49 58.717 22.49C59.0037 22.49 59.3037 22.4167 59.617 22.27C59.9304 22.1233 60.2104 21.9233 60.457 21.67L61.527 22.82C61.147 23.22 60.6937 23.54 60.167 23.78C59.647 24.0133 59.1304 24.13 58.617 24.13C57.9237 24.13 57.297 23.97 56.737 23.65C56.177 23.33 55.737 22.8933 55.417 22.34C55.097 21.7867 54.937 21.1667 54.937 20.48C54.937 19.8 55.1004 19.1867 55.427 18.64C55.7537 18.0933 56.2004 17.6633 56.767 17.35C57.3404 17.0367 57.9804 16.88 58.687 16.88C59.207 16.88 59.7204 16.99 60.227 17.21C60.7337 17.4233 61.1637 17.7167 61.517 18.09L60.457 19.37ZM69.0509 24H66.8609L65.0209 21.28L64.1409 22.26V24H62.3109V16.99H64.1409V20.03L66.7709 16.99H68.8909L66.2909 19.88L69.0509 24ZM71.4079 16.99H77.4179V18.5H75.3179V24H73.4879V18.5H71.4079V16.99ZM81.1489 16.88C81.8622 16.88 82.5056 17.0367 83.0789 17.35C83.6589 17.6633 84.1122 18.0933 84.4389 18.64C84.7722 19.1867 84.9389 19.8 84.9389 20.48C84.9389 21.1667 84.7722 21.7867 84.4389 22.34C84.1122 22.8933 83.6589 23.33 83.0789 23.65C82.5056 23.97 81.8622 24.13 81.1489 24.13C80.4356 24.13 79.7889 23.9733 79.2089 23.66C78.6356 23.34 78.1822 22.9033 77.8489 22.35C77.5222 21.79 77.3589 21.1667 77.3589 20.48C77.3589 19.8 77.5222 19.1867 77.8489 18.64C78.1822 18.0933 78.6356 17.6633 79.2089 17.35C79.7889 17.0367 80.4356 16.88 81.1489 16.88ZM81.1689 18.43C80.8222 18.43 80.4989 18.52 80.1989 18.7C79.9056 18.88 79.6722 19.13 79.4989 19.45C79.3256 19.7633 79.2389 20.11 79.2389 20.49C79.2389 20.8767 79.3256 21.23 79.4989 21.55C79.6789 21.8633 79.9156 22.1133 80.2089 22.3C80.5022 22.48 80.8222 22.57 81.1689 22.57C81.5156 22.57 81.8322 22.48 82.1189 22.3C82.4122 22.1133 82.6422 21.8633 82.8089 21.55C82.9756 21.23 83.0589 20.8767 83.0589 20.49C83.0589 20.11 82.9756 19.7633 82.8089 19.45C82.6422 19.13 82.4122 18.88 82.1189 18.7C81.8322 18.52 81.5156 18.43 81.1689 18.43ZM93.2128 24L92.7328 22.76H89.7028L89.2128 24H87.3328L90.3428 16.99H92.2228L95.1628 24H93.2128ZM90.2528 21.36H92.1928L91.2328 18.86L90.2528 21.36ZM95.7972 16.99H97.6272V22.44H100.597V24H95.7972V16.99ZM101.432 16.99H103.262V22.44H106.232V24H101.432V16.99Z" fill="white"/>
<path d="M28.0156 19.0156V20.9844H15.8281L21.4062 26.6094L20 28.0156L11.9844 20L20 11.9844L21.4062 13.3906L15.8281 19.0156H28.0156Z" fill="white"/>
</svg>
