<svg width="150" height="33" viewBox="0 0 150 33" fill="none" xmlns="http://www.w3.org/2000/svg">
<path d="M43.401 8.65H48.455L48.341 9.866H47.011L46.175 17.846C46.061 18.9607 45.7 19.7967 45.092 20.354C44.484 20.9113 43.6987 21.19 42.736 21.19C41.938 21.19 41.3237 21.019 40.893 20.677C40.4623 20.3223 40.1457 19.8663 39.943 19.309L40.988 18.549C41.1907 19.0683 41.4313 19.423 41.71 19.613C42.0013 19.7903 42.3497 19.879 42.755 19.879C43.401 19.879 43.8887 19.6953 44.218 19.328C44.56 18.9607 44.7627 18.4667 44.826 17.846L45.662 9.866H43.287L43.401 8.65ZM56.6611 12.545C56.5344 12.9883 56.4204 13.4253 56.3191 13.856C56.2177 14.2867 56.1417 14.7237 56.0911 15.167L55.4831 19.917H56.7561L56.6801 20.677L56.2811 21H54.2861L54.3241 19.29C54.0454 19.7967 53.6781 20.24 53.2221 20.62C52.7787 21 52.1834 21.19 51.4361 21.19C50.5114 21.19 49.8084 20.867 49.3271 20.221C48.8457 19.575 48.6051 18.7073 48.6051 17.618C48.6051 16.896 48.7254 16.1297 48.9661 15.319C49.2194 14.4957 49.6311 13.799 50.2011 13.229C50.7711 12.659 51.5437 12.374 52.5191 12.374C53.8111 12.374 54.6471 12.906 55.0271 13.97C55.0777 13.7293 55.1347 13.495 55.1981 13.267C55.2614 13.0263 55.3311 12.7857 55.4071 12.545H56.6611ZM52.6521 13.457C51.9554 13.457 51.4171 13.6723 51.0371 14.103C50.6571 14.5337 50.3847 15.0593 50.2201 15.68C50.0681 16.288 49.9921 16.8643 49.9921 17.409C49.9921 19.2077 50.6064 20.107 51.8351 20.107C52.5317 20.107 53.1081 19.822 53.5641 19.252C54.0327 18.682 54.3367 18.1057 54.4761 17.523L54.7231 15.661C54.7104 15.0277 54.5141 14.502 54.1341 14.084C53.7541 13.666 53.2601 13.457 52.6521 13.457ZM58.6348 12.545H60.8008L60.7818 14.179C61.0858 13.6343 61.4722 13.1973 61.9408 12.868C62.4095 12.5387 62.9732 12.374 63.6318 12.374C64.4425 12.374 65.0822 12.6273 65.5508 13.134C66.0195 13.6407 66.1905 14.4577 66.0638 15.585L65.5318 19.917H66.9568L66.8618 20.677L66.4628 21H64.1258L64.7338 15.984C64.8352 15.072 64.7402 14.426 64.4488 14.046C64.1575 13.6533 63.7078 13.457 63.0998 13.457C62.4158 13.457 61.8585 13.6977 61.4278 14.179C61.0098 14.6477 60.7438 15.186 60.6298 15.794L59.9838 21H58.7108L59.6038 13.628H58.1218L58.2168 12.906L58.6348 12.545ZM72.0754 19.784H74.3554L75.1344 12.317H72.8734L72.9874 11.101H76.6164L75.7044 19.784H77.8894L77.7564 21H71.9424L72.0754 19.784ZM80.9674 14.122L79.9034 13.989L80.4544 11.747C80.9357 11.481 81.4931 11.2783 82.1264 11.139C82.7597 10.987 83.3551 10.911 83.9124 10.911C85.0397 10.911 85.8314 11.196 86.2874 11.766C86.7561 12.3233 86.9904 12.9313 86.9904 13.59C86.9904 14.5147 86.6357 15.3697 85.9264 16.155C85.2171 16.9277 84.3811 17.618 83.4184 18.226C82.4684 18.834 81.6261 19.3533 80.8914 19.784H85.6984L86.0404 18.207L87.1424 18.302L86.6864 21H79.1244L79.1054 19.917C81.0814 18.6377 82.6394 17.5483 83.7794 16.649C84.9321 15.7497 85.5084 14.7997 85.5084 13.799C85.5084 12.6717 84.8244 12.108 83.4564 12.108C83.2031 12.108 82.8864 12.146 82.5064 12.222C82.1264 12.298 81.7717 12.4057 81.4424 12.545L80.9674 14.122ZM88.7742 12.925L89.2112 12.545H90.2562L90.5222 10.265L90.9782 9.828H91.8712L91.5292 12.545H94.4172L94.3222 13.229L93.8852 13.628H91.3962L90.8262 18.397C90.6995 19.537 91.0479 20.107 91.8712 20.107C92.1499 20.107 92.4032 20.0183 92.6312 19.841C92.8719 19.651 93.0935 19.2013 93.2962 18.492L94.2462 18.815C94.0309 19.6383 93.7269 20.24 93.3342 20.62C92.9542 21 92.4159 21.19 91.7192 21.19C90.9339 21.19 90.3449 20.9493 89.9522 20.468C89.5722 19.9867 89.4329 19.3343 89.5342 18.511L90.1232 13.628H88.6792L88.7742 12.925ZM95.6289 8.289L96.0469 7.928H98.4029L97.6429 14.065C97.9469 13.5457 98.3269 13.134 98.7829 12.83C99.2389 12.526 99.7962 12.374 100.455 12.374C101.253 12.374 101.886 12.6273 102.355 13.134C102.836 13.6407 103.007 14.4577 102.868 15.585L102.336 19.917H103.761L103.666 20.677L103.267 21H100.93L101.538 15.984C101.652 15.072 101.557 14.426 101.253 14.046C100.949 13.6533 100.506 13.457 99.9229 13.457C99.2515 13.457 98.7005 13.6913 98.2699 14.16C97.8519 14.616 97.5795 15.1353 97.4529 15.718L96.8069 21H95.5149L96.9779 9.011H95.5339L95.6289 8.289ZM104.063 22.938L105.469 18.834H106.761L105.355 22.938H104.063ZM114.644 14.122L113.58 13.989L114.131 11.747C114.613 11.481 115.17 11.2783 115.803 11.139C116.437 10.987 117.032 10.911 117.589 10.911C118.717 10.911 119.508 11.196 119.964 11.766C120.433 12.3233 120.667 12.9313 120.667 13.59C120.667 14.5147 120.313 15.3697 119.603 16.155C118.894 16.9277 118.058 17.618 117.095 18.226C116.145 18.834 115.303 19.3533 114.568 19.784H119.375L119.717 18.207L120.819 18.302L120.363 21H112.801L112.782 19.917C114.758 18.6377 116.316 17.5483 117.456 16.649C118.609 15.7497 119.185 14.7997 119.185 13.799C119.185 12.6717 118.501 12.108 117.133 12.108C116.88 12.108 116.563 12.146 116.183 12.222C115.803 12.298 115.449 12.4057 115.119 12.545L114.644 14.122ZM122.717 16.744C122.717 15.1733 123.154 13.8117 124.028 12.659C124.915 11.5063 126.175 10.93 127.809 10.93C129.177 10.93 130.184 11.3543 130.83 12.203C131.476 13.039 131.799 14.1283 131.799 15.471C131.799 17.143 131.349 18.5173 130.45 19.594C129.551 20.658 128.309 21.19 126.726 21.19C125.421 21.19 124.427 20.7973 123.743 20.012C123.059 19.214 122.717 18.1247 122.717 16.744ZM124.161 16.592C124.161 17.6307 124.37 18.454 124.788 19.062C125.206 19.6573 125.896 19.955 126.859 19.955C127.948 19.955 128.803 19.556 129.424 18.758C130.045 17.96 130.355 16.8643 130.355 15.471C130.355 14.4703 130.152 13.6723 129.747 13.077C129.342 12.469 128.645 12.165 127.657 12.165C126.517 12.165 125.649 12.5703 125.054 13.381C124.459 14.179 124.161 15.2493 124.161 16.592ZM133.232 19.784H135.512L136.291 12.317H134.03L134.144 11.101H137.773L136.861 19.784H139.046L138.913 21H133.099L133.232 19.784ZM144.157 21.19C143.067 21.19 142.168 20.943 141.459 20.449C140.749 19.955 140.395 19.2077 140.395 18.207C140.395 17.219 140.724 16.4717 141.383 15.965C142.041 15.4583 142.795 15.034 143.644 14.692C143.036 14.3627 142.51 13.9827 142.067 13.552C141.623 13.1213 141.402 12.545 141.402 11.823C141.402 10.873 141.801 10.075 142.599 9.429C143.397 8.783 144.391 8.46 145.582 8.46C146.595 8.46 147.437 8.71333 148.109 9.22C148.78 9.72667 149.116 10.4233 149.116 11.31C149.116 12.1587 148.824 12.8173 148.242 13.286C147.659 13.742 146.981 14.1347 146.209 14.464C146.893 14.7933 147.494 15.1987 148.014 15.68C148.546 16.1487 148.812 16.8073 148.812 17.656C148.812 18.7327 148.362 19.594 147.463 20.24C146.576 20.8733 145.474 21.19 144.157 21.19ZM142.846 11.614C142.846 12.2093 143.086 12.6843 143.568 13.039C144.062 13.381 144.632 13.704 145.278 14.008C145.936 13.7293 146.506 13.4 146.988 13.02C147.469 12.64 147.71 12.1207 147.71 11.462C147.71 10.8287 147.494 10.3663 147.064 10.075C146.633 9.78367 146.107 9.638 145.487 9.638C144.739 9.638 144.112 9.81533 143.606 10.17C143.099 10.5247 142.846 11.006 142.846 11.614ZM144.366 20.012C145.176 20.012 145.879 19.822 146.475 19.442C147.083 19.0493 147.387 18.511 147.387 17.827C147.387 17.143 147.095 16.611 146.513 16.231C145.93 15.851 145.278 15.4963 144.556 15.167C143.834 15.4837 143.188 15.8447 142.618 16.25C142.06 16.6427 141.782 17.2127 141.782 17.96C141.782 18.6313 142.022 19.1443 142.504 19.499C142.998 19.841 143.618 20.012 144.366 20.012Z" fill="white"/>
<path d="M15.5156 9.98438V15.2344L20.0156 17.9062L19.2656 19.1719L14.0156 15.9844V9.98438H15.5156ZM9.32812 20.6719C10.9219 22.2344 12.8125 23.0156 15 23.0156C17.1875 23.0156 19.0625 22.2344 20.625 20.6719C22.2188 19.0781 23.0156 17.1875 23.0156 15C23.0156 12.8125 22.2188 10.9375 20.625 9.375C19.0625 7.78125 17.1875 6.98438 15 6.98438C12.8125 6.98438 10.9219 7.78125 9.32812 9.375C7.76562 10.9375 6.98438 12.8125 6.98438 15C6.98438 17.1875 7.76562 19.0781 9.32812 20.6719ZM7.92188 7.96875C9.89062 6 12.25 5.01562 15 5.01562C17.75 5.01562 20.0937 6 22.0312 7.96875C24 9.90625 24.9844 12.25 24.9844 15C24.9844 17.75 24 20.1094 22.0312 22.0781C20.0937 24.0156 17.75 24.9844 15 24.9844C12.25 24.9844 9.89062 24.0156 7.92188 22.0781C5.98438 20.1094 5.01562 17.75 5.01562 15C5.01562 12.25 5.98438 9.90625 7.92188 7.96875Z" fill="white"/>
</svg>
