<svg width="148" height="33" viewBox="0 0 148 33" fill="none" xmlns="http://www.w3.org/2000/svg">
<path d="M42.318 14.122L41.254 13.989L41.805 11.747C42.2863 11.481 42.8437 11.2783 43.477 11.139C44.1103 10.987 44.7057 10.911 45.263 10.911C46.3903 10.911 47.182 11.196 47.638 11.766C48.1067 12.3233 48.341 12.9313 48.341 13.59C48.341 14.5147 47.9863 15.3697 47.277 16.155C46.5677 16.9277 45.7317 17.618 44.769 18.226C43.819 18.834 42.9767 19.3533 42.242 19.784H47.049L47.391 18.207L48.493 18.302L48.037 21H40.475L40.456 19.917C42.432 18.6377 43.99 17.5483 45.13 16.649C46.2827 15.7497 46.859 14.7997 46.859 13.799C46.859 12.6717 46.175 12.108 44.807 12.108C44.5537 12.108 44.237 12.146 43.857 12.222C43.477 12.298 43.1223 12.4057 42.793 12.545L42.318 14.122ZM57.9528 19.499C57.9528 20.753 57.5728 21.76 56.8128 22.52C56.0528 23.28 54.9951 23.66 53.6398 23.66C52.5124 23.66 51.6574 23.4003 51.0748 22.881C50.5048 22.3743 50.1881 21.7473 50.1248 21L51.2268 20.62C51.3408 21.1773 51.5878 21.627 51.9678 21.969C52.3478 22.311 52.9051 22.482 53.6398 22.482C54.5898 22.482 55.2991 22.216 55.7678 21.684C56.2491 21.152 56.4898 20.4743 56.4898 19.651C56.4898 18.5743 56.1414 17.8777 55.4448 17.561C54.7608 17.2443 53.9248 17.086 52.9368 17.086C52.4174 17.086 51.8918 17.105 51.3598 17.143L50.9418 16.687L51.5498 11.101H58.2758L58.1808 13.723L57.0218 13.837L56.9648 12.298H52.6898L52.2908 15.927C52.4428 15.9143 52.6011 15.908 52.7658 15.908C52.9304 15.908 53.0824 15.908 53.2218 15.908C54.4884 15.908 55.5904 16.1423 56.5278 16.611C57.4778 17.067 57.9528 18.0297 57.9528 19.499ZM73.5832 20.05C73.0766 20.43 72.4559 20.715 71.7212 20.905C70.9992 21.095 70.2899 21.19 69.5932 21.19C67.8326 21.19 66.4836 20.6643 65.5462 19.613C64.6216 18.549 64.1592 17.181 64.1592 15.509C64.1592 14.2297 64.4252 13.058 64.9572 11.994C65.4892 10.9173 66.2429 10.0623 67.2182 9.429C68.2062 8.783 69.3779 8.46 70.7332 8.46C71.6326 8.46 72.4179 8.59933 73.0892 8.878C73.7606 9.15667 74.3052 9.49867 74.7232 9.904L74.7992 12.279L73.6212 12.393L73.4692 10.588C73.1146 10.322 72.7029 10.113 72.2342 9.961C71.7782 9.79633 71.2526 9.714 70.6572 9.714C69.1626 9.714 67.9402 10.227 66.9902 11.253C66.0402 12.2663 65.5652 13.647 65.5652 15.395C65.5652 18.4223 66.9966 19.936 69.8592 19.936C70.8852 19.936 71.7529 19.7523 72.4622 19.385L72.9942 17.561L74.1342 17.675L73.5832 20.05ZM75.88 17.409C75.88 16.079 76.2473 14.9073 76.982 13.894C77.7167 12.8807 78.7997 12.374 80.231 12.374C81.447 12.374 82.3083 12.7477 82.815 13.495C83.3343 14.2423 83.594 15.148 83.594 16.212C83.594 17.618 83.2077 18.8023 82.435 19.765C81.675 20.715 80.611 21.19 79.243 21.19C78.0903 21.19 77.2417 20.8417 76.697 20.145C76.1523 19.4483 75.88 18.5363 75.88 17.409ZM77.286 17.333C77.286 18.1563 77.4317 18.8277 77.723 19.347C78.027 19.8537 78.578 20.107 79.376 20.107C80.364 20.107 81.0797 19.727 81.523 18.967C81.979 18.1943 82.207 17.2887 82.207 16.25C82.207 15.4267 82.055 14.7553 81.751 14.236C81.447 13.7167 80.8897 13.457 80.079 13.457C79.1543 13.457 78.4577 13.818 77.989 14.54C77.5203 15.262 77.286 16.193 77.286 17.333ZM85.4649 12.545H87.6309L87.5739 14.217C87.8653 13.6597 88.2389 13.2163 88.6949 12.887C89.1509 12.545 89.7146 12.374 90.3859 12.374C91.7413 12.374 92.5139 13.0263 92.7039 14.331C92.9826 13.7357 93.3499 13.2607 93.8059 12.906C94.2746 12.5513 94.8573 12.374 95.5539 12.374C96.3519 12.374 96.9726 12.64 97.4159 13.172C97.8719 13.6913 98.0366 14.4957 97.9099 15.585L97.3779 19.917H98.8029L98.7079 20.677L98.2899 21H95.9719L96.5799 15.984C96.6813 15.072 96.5926 14.426 96.3139 14.046C96.0353 13.6533 95.5983 13.457 95.0029 13.457C94.3189 13.457 93.7933 13.6787 93.4259 14.122C93.0713 14.5527 92.8243 15.0593 92.6849 15.642L92.0389 21H90.7659L91.3739 15.984C91.4753 15.0593 91.3866 14.407 91.1079 14.027C90.8293 13.647 90.4049 13.457 89.8349 13.457C89.0623 13.457 88.4859 13.723 88.1059 14.255C87.7386 14.7743 87.5106 15.3697 87.4219 16.041L87.4029 16.022L86.8139 21H85.5409L86.4339 13.628H84.9519L85.0469 12.906L85.4649 12.545ZM100.42 12.545H102.586L102.529 14.217C102.82 13.6597 103.194 13.2163 103.65 12.887C104.106 12.545 104.67 12.374 105.341 12.374C106.696 12.374 107.469 13.0263 107.659 14.331C107.938 13.7357 108.305 13.2607 108.761 12.906C109.23 12.5513 109.812 12.374 110.509 12.374C111.307 12.374 111.928 12.64 112.371 13.172C112.827 13.6913 112.992 14.4957 112.865 15.585L112.333 19.917H113.758L113.663 20.677L113.245 21H110.927L111.535 15.984C111.636 15.072 111.548 14.426 111.269 14.046C110.99 13.6533 110.553 13.457 109.958 13.457C109.274 13.457 108.748 13.6787 108.381 14.122C108.026 14.5527 107.779 15.0593 107.64 15.642L106.994 21H105.721L106.329 15.984C106.43 15.0593 106.342 14.407 106.063 14.027C105.784 13.647 105.36 13.457 104.79 13.457C104.017 13.457 103.441 13.723 103.061 14.255C102.694 14.7743 102.466 15.3697 102.377 16.041L102.358 16.022L101.769 21H100.496L101.389 13.628H99.907L100.002 12.906L100.42 12.545ZM118.377 20.107C118.96 20.107 119.435 19.955 119.802 19.651C120.182 19.3343 120.473 18.9163 120.676 18.397L121.721 18.644C121.544 19.3533 121.151 19.955 120.543 20.449C119.935 20.943 119.143 21.19 118.168 21.19C117.142 21.19 116.344 20.8797 115.774 20.259C115.204 19.6257 114.919 18.7137 114.919 17.523C114.919 16.079 115.305 14.863 116.078 13.875C116.863 12.8743 117.902 12.374 119.194 12.374C119.941 12.374 120.581 12.564 121.113 12.944C121.645 13.3113 121.911 13.8243 121.911 14.483C121.911 15.1037 121.677 15.6357 121.208 16.079C120.752 16.5223 119.979 16.858 118.89 17.086C118.497 17.162 118.079 17.2443 117.636 17.333C117.205 17.409 116.762 17.4787 116.306 17.542C116.319 18.34 116.477 18.967 116.781 19.423C117.098 19.879 117.63 20.107 118.377 20.107ZM118.339 16.288C119.302 16.0727 119.903 15.813 120.144 15.509C120.397 15.205 120.524 14.901 120.524 14.597C120.524 14.1663 120.391 13.8623 120.125 13.685C119.859 13.5077 119.504 13.419 119.061 13.419C118.174 13.419 117.522 13.7483 117.104 14.407C116.699 15.0657 116.445 15.794 116.344 16.592C117.205 16.478 117.87 16.3767 118.339 16.288ZM123.669 12.545H125.835L125.816 14.179C126.12 13.6343 126.506 13.1973 126.975 12.868C127.444 12.5387 128.007 12.374 128.666 12.374C129.477 12.374 130.116 12.6273 130.585 13.134C131.054 13.6407 131.225 14.4577 131.098 15.585L130.566 19.917H131.991L131.896 20.677L131.497 21H129.16L129.768 15.984C129.869 15.072 129.774 14.426 129.483 14.046C129.192 13.6533 128.742 13.457 128.134 13.457C127.45 13.457 126.893 13.6977 126.462 14.179C126.044 14.6477 125.778 15.186 125.664 15.794L125.018 21H123.745L124.638 13.628H123.156L123.251 12.906L123.669 12.545ZM133.101 12.925L133.538 12.545H134.583L134.849 10.265L135.305 9.828H136.198L135.856 12.545H138.744L138.649 13.229L138.212 13.628H135.723L135.153 18.397C135.027 19.537 135.375 20.107 136.198 20.107C136.477 20.107 136.73 20.0183 136.958 19.841C137.199 19.651 137.421 19.2013 137.623 18.492L138.573 18.815C138.358 19.6383 138.054 20.24 137.661 20.62C137.281 21 136.743 21.19 136.046 21.19C135.261 21.19 134.672 20.9493 134.279 20.468C133.899 19.9867 133.76 19.3343 133.861 18.511L134.45 13.628H133.006L133.101 12.925ZM142.521 20.107C143.889 20.107 144.573 19.6193 144.573 18.644C144.573 18.1247 144.364 17.7763 143.946 17.599C143.541 17.409 143.009 17.2253 142.35 17.048C141.793 16.9087 141.28 16.6997 140.811 16.421C140.355 16.1423 140.127 15.6357 140.127 14.901C140.127 14.065 140.431 13.438 141.039 13.02C141.647 12.5893 142.35 12.374 143.148 12.374C143.718 12.374 144.263 12.45 144.782 12.602C145.301 12.754 145.732 12.9377 146.074 13.153L146.036 15.129L144.991 15.262L144.915 13.913C144.674 13.7863 144.421 13.6787 144.155 13.59C143.902 13.5013 143.604 13.457 143.262 13.457C142.071 13.457 141.476 13.894 141.476 14.768C141.476 15.148 141.622 15.4267 141.913 15.604C142.204 15.7813 142.66 15.9523 143.281 16.117C143.864 16.269 144.446 16.4907 145.029 16.782C145.624 17.0733 145.922 17.656 145.922 18.53C145.922 19.3533 145.624 20.0057 145.029 20.487C144.434 20.9557 143.661 21.19 142.711 21.19C142.128 21.19 141.52 21.114 140.887 20.962C140.266 20.7973 139.791 20.5947 139.462 20.354L139.918 18.435L140.963 18.549L140.773 19.727C141.267 19.9803 141.85 20.107 142.521 20.107Z" fill="white"/>
<path d="M23.0156 5.01562C23.5469 5.01562 24 5.21875 24.375 5.625C24.7812 6 24.9844 6.45312 24.9844 6.98438V18.9844C24.9844 19.5156 24.7812 19.9844 24.375 20.3906C24 20.7969 23.5469 21 23.0156 21H9L5.01562 24.9844V6.98438C5.01562 6.45312 5.20312 6 5.57812 5.625C5.98438 5.21875 6.45312 5.01562 6.98438 5.01562H23.0156Z" fill="white"/>
</svg>
